<?xml version="1.0" encoding="utf-8"?>
<!-- Generator: Adobe Illustrator 22.1.0, SVG Export Plug-In . SVG Version: 6.00 Build 0)  -->
<svg version="1.1" id="Слой_1" xmlns="http://www.w3.org/2000/svg" xmlns:xlink="http://www.w3.org/1999/xlink" x="0px" y="0px"
	 viewBox="0 0 49 49" style="enable-background:new 0 0 49 49;" xml:space="preserve">
<style type="text/css">
	.st0{fill:#FFFFFF;}
</style>
<g>
	<path class="st0" d="M24.5,49C11,49,0,38,0,24.5S11,0,24.5,0S49,11,49,24.5S38,49,24.5,49z M24.5,1.9C12,1.9,1.9,12,1.9,24.5
		S12,47.2,24.5,47.2S47.2,37,47.2,24.5S37,1.9,24.5,1.9z"/>
	<path class="st0" d="M20.2,38.8h5.7V24.4h4l0.4-4.8h-4.5c0,0,0-1.9,0-2.7c0-1.1,0.2-1.6,1.4-1.6c0.9,0,3.1,0,3.1,0v-5
		c0,0-3.2,0-4,0c-4.2,0-6.2,1.9-6.2,5.4c0,3.1,0,3.8,0,3.8h-3v4.8h3v14.4h0.1V38.8z"/>
</g>
</svg>
