<?xml version="1.0" encoding="utf-8"?>
<!-- Generator: Adobe Illustrator 22.1.0, SVG Export Plug-In . SVG Version: 6.00 Build 0)  -->
<svg version="1.1" id="Слой_1" xmlns="http://www.w3.org/2000/svg" xmlns:xlink="http://www.w3.org/1999/xlink" x="0px" y="0px"
	 viewBox="0 0 49.8 49.8" style="enable-background:new 0 0 49.8 49.8;" xml:space="preserve">
<style type="text/css">
	.st0{fill:#3552a4;}
</style>
<g>
	<path class="st0" d="M24.9,49.8C11.2,49.8,0,38.6,0,24.9S11.2,0,24.9,0s24.9,11.2,24.9,24.9S38.6,49.8,24.9,49.8z M24.9,1.9
		c-12.7,0-23,10.3-23,23s10.3,23,23,23s23-10.3,23-23S37.6,1.9,24.9,1.9z"/>
	<path class="st0" d="M24.9,14.1c3.5,0,3.9,0,5.3,0.1c1.3,0,2,0.3,2.4,0.5c0.6,0.3,1,0.5,1.5,1c0.5,0.5,0.8,0.9,1,1.5
		c0.1,0.5,0.4,1.1,0.5,2.4c0,1.4,0.1,1.8,0.1,5.3s0,3.9-0.1,5.3c0,1.3-0.3,2-0.5,2.4c-0.3,0.6-0.5,1-1,1.5s-0.9,0.8-1.5,1
		c-0.5,0.1-1.1,0.4-2.4,0.5c-1.4,0.1-1.8,0.1-5.3,0.1s-3.9,0-5.3-0.1c-1.3,0-2-0.3-2.4-0.5c-0.6-0.3-1-0.5-1.5-1s-0.8-0.9-1-1.5
		c-0.1-0.5-0.4-1.1-0.5-2.4c-0.1-1.4-0.1-1.8-0.1-5.3s0-3.9,0.1-5.3c0-1.3,0.3-2,0.5-2.4c0.3-0.6,0.5-1,1-1.5c0.5-0.5,0.9-0.8,1.5-1
		c0.5-0.1,1.1-0.4,2.4-0.5C21,14.1,21.4,14.1,24.9,14.1z M24.9,11.7c-3.5,0-4,0-5.4,0.1s-2.4,0.3-3.1,0.6c-0.9,0.4-1.6,0.8-2.3,1.5
		c-0.8,0.8-1.1,1.5-1.5,2.3c-0.4,0.9-0.5,1.8-0.6,3.1c-0.1,1.4-0.1,1.9-0.1,5.4s0,4,0.1,5.4s0.3,2.4,0.6,3.1
		c0.4,0.9,0.8,1.6,1.5,2.3c0.8,0.8,1.5,1.1,2.3,1.5c0.9,0.4,1.8,0.5,3.1,0.6c1.4,0.1,1.9,0.1,5.4,0.1s4,0,5.4-0.1s2.4-0.3,3.1-0.6
		c0.9-0.4,1.6-0.8,2.3-1.5c0.8-0.8,1.1-1.5,1.5-2.3c0.4-0.9,0.5-1.8,0.6-3.1c0.1-1.4,0.1-1.9,0.1-5.4s0-4-0.1-5.4s-0.3-2.4-0.6-3.1
		c-0.4-0.9-0.8-1.6-1.5-2.3c-0.8-0.8-1.5-1.1-2.3-1.5c-0.9-0.4-1.8-0.5-3.1-0.6C28.9,11.8,28.4,11.7,24.9,11.7z"/>
	<path class="st0" d="M24.9,18.1c-3.8,0-6.8,3-6.8,6.8s3,6.8,6.8,6.8s6.8-3,6.8-6.8C31.6,21.1,28.5,18.1,24.9,18.1z M24.9,29.3
		c-2.4,0-4.4-2-4.4-4.4s2-4.4,4.4-4.4s4.4,2,4.4,4.4S27.3,29.3,24.9,29.3z"/>
	<path class="st0" d="M33.4,17.9c0,0.9-0.8,1.6-1.6,1.6c-0.9,0-1.6-0.8-1.6-1.6s0.8-1.6,1.6-1.6C32.7,16.3,33.4,17,33.4,17.9z"/>
</g>
</svg>
