<?xml version="1.0" encoding="utf-8"?>
<!-- Generator: Adobe Illustrator 22.1.0, SVG Export Plug-In . SVG Version: 6.00 Build 0)  -->
<svg version="1.1" id="Слой_1" xmlns="http://www.w3.org/2000/svg" xmlns:xlink="http://www.w3.org/1999/xlink" x="0px" y="0px"
	 viewBox="0 0 49.8 49.8" style="enable-background:new 0 0 49.8 49.8;" xml:space="preserve">
<style type="text/css">
	.st0{fill:#FFFFFF;}
</style>
<g>
	<path class="st0" d="M24.9,49.8C11.2,49.8,0,38.6,0,24.9S11.2,0,24.9,0s24.9,11.2,24.9,24.9S38.6,49.8,24.9,49.8z M24.9,1.9
		c-12.7,0-23,10.3-23,23s10.3,23,23,23s23-10.3,23-23S37.6,1.9,24.9,1.9z"/>
</g>
<g>
	<path class="st0" d="M33.4,25.6c-0.3-0.7-0.9-1.2-1.7-1.2c-0.5,0-1,0.3-1.4,0.6c-0.5,0.3-1,0.7-1.6,0.9c-1.7,0.7-3.5,1-5.3,0.7
		c-1.2-0.2-2.4-0.4-3.5-1c-0.5-0.3-0.9-0.6-1.4-0.9c-0.9-0.5-1.8-0.4-2.3,0.2c-0.4,0.5-0.7,1-0.5,1.7c0.1,0.4,0.3,0.7,0.6,1
		c1.7,1.5,3.6,2.3,5.8,2.6c0.3,0,0.7,0.1,1,0.2c-0.1,0.1-0.2,0.3-0.3,0.4c-1.8,1.8-3.5,3.5-5.3,5.3c-0.7,0.7-0.7,1.7,0,2.4
		c0.3,0.4,0.7,0.6,1.2,0.7c0.1,0,0.3,0,0.4,0c0.8-0.2,1.3-0.8,1.8-1.3c1.2-1.2,2.3-2.3,3.5-3.5c0.2-0.2,0.2-0.1,0.4,0
		c1.4,1.4,2.8,2.8,4.2,4.2c0.3,0.3,0.7,0.4,1.1,0.6c0.1,0,0.3,0,0.4,0c0.1,0,0.1-0.1,0.2-0.1c0.6-0.1,0.9-0.5,1.2-0.9
		c0.4-0.6,0.4-1.6-0.3-2.3c-1.8-1.8-3.6-3.6-5.3-5.3c-0.1-0.1-0.1-0.1-0.2-0.3c0.3,0,0.5-0.1,0.7-0.1c1.1-0.2,2.1-0.4,3.1-0.8
		c1.1-0.4,2-1,2.9-1.8C33.4,27.1,33.7,26.4,33.4,25.6z"/>
	<path class="st0" d="M24.5,24.4c4.2,0,7.6-3.4,7.6-7.7c-0.1-4.1-3.3-7.4-7.5-7.4c-4.2,0-7.6,3.4-7.5,7.7
		C17.1,21,20.4,24.4,24.5,24.4z M24.6,13.1c2,0,3.7,1.6,3.7,3.8c0,2-1.7,3.7-3.8,3.7c-2.1,0-3.7-1.7-3.7-3.7
		C20.8,14.8,22.6,13.1,24.6,13.1z"/>
</g>
</svg>
