<?xml version="1.0" encoding="utf-8"?>
<!-- Generator: Adobe Illustrator 22.1.0, SVG Export Plug-In . SVG Version: 6.00 Build 0)  -->
<svg version="1.1" id="Слой_1" xmlns="http://www.w3.org/2000/svg" xmlns:xlink="http://www.w3.org/1999/xlink" x="0px" y="0px"
	 viewBox="0 0 49.8 49.8" style="enable-background:new 0 0 49.8 49.8;" xml:space="preserve">
<style type="text/css">
	.st0{fill:#FFFFFF;}
</style>
<g>
	<path class="st0" d="M24.9,49.8C11.2,49.8,0,38.6,0,24.9S11.2,0,24.9,0s24.9,11.2,24.9,24.9S38.6,49.8,24.9,49.8z M24.9,1.9
		c-12.7,0-23,10.3-23,23s10.3,23,23,23s23-10.3,23-23S37.6,1.9,24.9,1.9z"/>
	<g>
		<path id="YouTube__x28_alt_x29__1_" class="st0" d="M36.1,20.7c0-1.9-1.5-3.4-3.4-3.4h-16c-1.9,0-3.4,1.5-3.4,3.4v9.2
			c0,1.9,1.5,3.4,3.4,3.4h16.1c1.9,0,3.4-1.5,3.4-3.4v-9.2H36.1z M22.4,29.2v-8.6l6.5,4.3L22.4,29.2z"/>
	</g>
</g>
</svg>
