<?xml version="1.0" encoding="utf-8"?>
<!-- Generator: Adobe Illustrator 22.1.0, SVG Export Plug-In . SVG Version: 6.00 Build 0)  -->
<svg version="1.1" id="Слой_1" xmlns="http://www.w3.org/2000/svg" xmlns:xlink="http://www.w3.org/1999/xlink" x="0px" y="0px"
	 viewBox="0 0 49.8 49.8" style="enable-background:new 0 0 49.8 49.8;" xml:space="preserve">
<style type="text/css">
	.st0{fill:#3552a4;}
</style>
<g>
	<g>
		<path class="st0" d="M37.2,30.3c-0.8-1-1.8-1.8-2.7-2.8c-0.8-0.8-0.9-1.3-0.2-2.2c0.7-1,1.5-2,2.3-3c0.7-1,1.4-1.9,1.8-3
			c0.2-0.7,0-1-0.7-1.2c-0.1,0-0.3,0-0.4,0h-4.4c-0.5,0-0.8,0.2-1,0.7c-0.3,0.7-0.5,1.3-0.8,1.9c-0.7,1.4-1.5,2.8-2.6,4
			c-0.2,0.3-0.5,0.6-0.9,0.4c-0.5-0.2-0.7-1-0.6-1.3v-5.1c-0.1-0.7-0.3-1.1-1-1.2h-4.6c-0.6,0-0.9,0.2-1.2,0.6
			c-0.2,0.2-0.2,0.4,0.1,0.4c0.8,0.1,1.2,0.6,1.3,1.4c0.2,1.2,0.2,2.4,0.1,3.7c0,0.4-0.1,0.7-0.2,1c-0.2,0.5-0.6,0.6-1.1,0.3
			c-0.4-0.3-0.7-0.7-1-1.1c-1.1-1.6-2-3.2-2.7-5c-0.2-0.5-0.6-0.8-1.1-0.8c-1.3,0-2.7,0-4,0c-0.8,0-1,0.4-0.7,1.1
			c1.4,3.2,3.1,6.3,5.2,9.2c1.1,1.5,2.3,2.8,3.9,3.7c1.8,1,3.8,1.3,5.8,1.3c1,0,1.3-0.3,1.3-1.3c0-0.7,0.1-1.3,0.4-1.9
			s0.8-0.7,1.4-0.3c0.3,0.2,0.5,0.4,0.7,0.7c0.5,0.6,1.1,1.2,1.6,1.8c0.7,0.7,1.5,1.1,2.6,1.1h4.1c0.7,0,1-0.8,0.6-1.6
			C37.9,31.2,37.6,30.7,37.2,30.3z"/>
	</g>
	<g>
		<path class="st0" d="M24.9,49.8C11.2,49.8,0,38.6,0,24.9S11.2,0,24.9,0s24.9,11.2,24.9,24.9S38.6,49.8,24.9,49.8z M24.9,1.9
			c-12.7,0-23,10.3-23,23s10.3,23,23,23s23-10.3,23-23S37.6,1.9,24.9,1.9z"/>
	</g>
</g>
</svg>
