<?xml version="1.0" encoding="iso-8859-1"?>
<!-- Generator: Adobe Illustrator 23.0.3, SVG Export Plug-In . SVG Version: 6.00 Build 0)  -->
<svg version="1.1" id="&#x421;&#x43B;&#x43E;&#x439;_1"
	 xmlns="http://www.w3.org/2000/svg" xmlns:xlink="http://www.w3.org/1999/xlink" x="0px" y="0px" viewBox="0 0 175 36"
	 style="enable-background:new 0 0 175 36;" xml:space="preserve">
<g>
	<path style="fill:#FFFFFF;" d="M175.032,21.993h-0.042h-15.288c0.632,2.485,2.485,4.38,5.896,4.38c1.895,0,3.285-0.632,4.043-1.853
		h5.18c-1.137,3.664-4.843,6.149-9.391,6.149c-6.359,0-10.613-4.675-10.613-10.571c0-5.938,4.338-10.444,10.402-10.444
		c5.812,0,9.939,4.127,9.939,10.107C175.158,20.477,175.158,21.235,175.032,21.993z M159.702,18.161h10.823
		c-0.421-2.695-2.19-4.675-5.18-4.675C162.229,13.486,160.334,15.592,159.702,18.161z"/>
	<path style="fill:#FFFFFF;" d="M118.426,9.485c-2.4,0-4.464,0.842-6.149,2.274v-1.642h-8.257v1.051
		c1.885,0,3.414,1.528,3.414,3.414v7.226v3.766v4.464h4.843v-4.464v-4.715v-4.045c1.516-1.895,3.411-2.906,5.138-2.906
		c3.074,0,4.885,1.937,4.885,5.433v2.578v3.655v4.464h4.885v-4.464v-1.981v-4.547C127.185,13.275,123.69,9.485,118.426,9.485z"/>
	<path style="fill:#FFFFFF;" d="M21.131,25.6c0-0.009,0.001-0.018,0.001-0.028h-0.001V14.581v-4.464h-4.843v1.39
		c-1.642-1.179-3.706-1.853-6.107-1.853c-5.559,0-10.023,4.632-10.023,10.444c0,5.77,4.464,10.402,10.023,10.402
		c2.4,0,4.464-0.674,6.107-1.853v1.39h8.044v-1.033C22.546,28.893,21.131,27.414,21.131,25.6z M16.288,23.972
		c-1.727,1.685-3.496,2.316-5.391,2.316c-3.411,0-5.896-2.906-5.896-6.191c0-3.327,2.485-6.233,5.896-6.233
		c1.895,0,3.664,0.632,5.391,2.316V23.972z"/>
	<path style="fill:#FFFFFF;" d="M100.819,25.6c0-0.009,0.001-0.018,0.001-0.028h-0.001V14.581v-4.464h-4.843v1.39
		c-1.642-1.179-3.706-1.853-6.107-1.853c-5.559,0-10.023,4.632-10.023,10.444c0,5.77,4.464,10.402,10.023,10.402
		c2.4,0,4.464-0.674,6.107-1.853v1.39h8.044v-1.033C102.235,28.893,100.819,27.414,100.819,25.6z M95.976,23.972
		c-1.727,1.685-3.496,2.316-5.391,2.316c-3.411,0-5.896-2.906-5.896-6.191c0-3.327,2.485-6.233,5.896-6.233
		c1.895,0,3.664,0.632,5.391,2.316V23.972z"/>
	<path style="fill:#FFFFFF;" d="M141.591,26.12c-3.495,0-6.149-2.653-6.149-6.022s2.653-6.022,6.149-6.022
		c2.443,0,4.296,1.39,4.843,3.537h4.97c-0.674-4.717-4.422-7.918-9.813-7.918c-6.359,0-10.992,4.422-10.992,10.402
		S135.232,30.5,141.591,30.5c5.391,0,9.139-3.201,9.813-7.918h-4.97C145.886,24.73,144.033,26.12,141.591,26.12z"/>
	<path style="fill:#FFFFFF;" d="M46.542,25.6c0-0.009,0.001-0.018,0.001-0.028h-0.001V0.346h-4.843v11.161
		c-1.642-1.179-3.706-1.853-6.107-1.853c-5.559,0-10.023,4.632-10.023,10.402c0,5.812,4.464,10.445,10.023,10.445
		c2.4,0,4.464-0.674,6.107-1.895v1.432h8.257v-1.023C48.07,29.014,46.542,27.486,46.542,25.6z M41.698,23.972
		c-1.727,1.685-3.496,2.316-5.391,2.316c-3.411,0-5.896-2.906-5.896-6.233c0-3.285,2.485-6.191,5.896-6.191
		c1.895,0,3.664,0.632,5.391,2.485V23.972z"/>
	<g>
		<path style="fill:#DE2919;" d="M77.785,0.346l-4.256,5.803L60.941,23.315l-4.668-5.803l-4.668-5.803
			c-2.35,3.205-2.166,8.402,0.413,11.607l9.337,11.607l16.844-22.97C80.548,8.747,80.363,3.551,77.785,0.346z"/>
	</g>
</g>
<g>
</g>
<g>
</g>
<g>
</g>
<g>
</g>
<g>
</g>
<g>
</g>
<g>
</g>
<g>
</g>
<g>
</g>
<g>
</g>
<g>
</g>
<g>
</g>
<g>
</g>
<g>
</g>
<g>
</g>
</svg>
