<?xml version="1.0" encoding="utf-8"?>
<!-- Generator: Adobe Illustrator 22.1.0, SVG Export Plug-In . SVG Version: 6.00 Build 0)  -->
<svg version="1.1" id="Слой_1" xmlns="http://www.w3.org/2000/svg" xmlns:xlink="http://www.w3.org/1999/xlink" x="0px" y="0px"
	 viewBox="0 0 411.2 80.9" style="enable-background:new 0 0 411.2 80.9;" xml:space="preserve">
<style type="text/css">
	.st0{fill:#DF2919;}
</style>
<path d="M411,50.9L411,50.9h-36c1.5,5.8,5.8,10.3,13.9,10.3c4.5,0,7.7-1.5,9.5-4.4h12.2c-2.7,8.6-11.4,14.5-22.1,14.5
	c-14.9,0-24.9-11-24.9-24.8c0-14,10.2-24.5,24.4-24.5c13.7,0,23.4,9.7,23.4,23.8C411.3,47.3,411.3,49.1,411,50.9z M375,41.9h25.4
	c-1-6.3-5.1-11-12.2-11C380.9,30.9,376.5,35.8,375,41.9z"/>
<path d="M278,21.5c-5.6,0-10.5,2-14.5,5.3V23h-19.4v2.5c4.4,0,8,3.6,8,8v17v8.9v10.5h11.4V59.3V48.2v-9.5c3.6-4.5,8-6.8,12.1-6.8
	c7.2,0,11.5,4.6,11.5,12.8v6.1v8.6v10.5h11.5V59.3v-4.7V44C298.6,30.4,290.3,21.5,278,21.5z"/>
<path d="M49.3,59.4C49.3,59.3,49.3,59.3,49.3,59.4L49.3,59.4V33.5V23H37.9v3.3c-3.9-2.8-8.7-4.4-14.4-4.4C10.5,21.9,0,32.8,0,46.4
	C0,60,10.5,70.9,23.6,70.9c5.6,0,10.5-1.6,14.4-4.4v3.3h18.9v-2.4C52.6,67.1,49.3,63.6,49.3,59.4z M37.9,55.5
	c-4.1,4-8.2,5.4-12.7,5.4c-8,0-13.9-6.8-13.9-14.6c0-7.8,5.8-14.6,13.9-14.6c4.5,0,8.6,1.5,12.7,5.4V55.5z"/>
<path d="M236.6,59.4C236.6,59.3,236.6,59.3,236.6,59.4L236.6,59.4V33.5V23h-11.4v3.3c-3.9-2.8-8.7-4.4-14.4-4.4
	c-13.1,0-23.6,10.9-23.6,24.5c0,13.6,10.5,24.4,23.6,24.4c5.6,0,10.5-1.6,14.4-4.4v3.3h18.9v-2.4C239.9,67.1,236.6,63.6,236.6,59.4z
	 M225.2,55.5c-4.1,4-8.2,5.4-12.7,5.4c-8,0-13.9-6.8-13.9-14.6c0-7.8,5.8-14.6,13.9-14.6c4.5,0,8.6,1.5,12.7,5.4V55.5z"/>
<path d="M332.4,60.6c-8.2,0-14.5-6.2-14.5-14.2s6.2-14.2,14.5-14.2c5.7,0,10.1,3.3,11.4,8.3h11.7C353.9,29.5,345.1,22,332.4,22
	c-14.9,0-25.8,10.4-25.8,24.4s10.9,24.4,25.8,24.4c12.7,0,21.5-7.5,23.1-18.6h-11.7C342.5,57.3,338.2,60.6,332.4,60.6z"/>
<path d="M109,59.4C109,59.3,109,59.3,109,59.4L109,59.4V0H97.6v26.2c-3.9-2.8-8.7-4.4-14.4-4.4c-13.1,0-23.6,10.9-23.6,24.4
	c0,13.7,10.5,24.5,23.6,24.5c5.6,0,10.5-1.6,14.4-4.5v3.4H117v-2.4C112.6,67.4,109,63.8,109,59.4z M97.6,55.5
	c-4.1,4-8.2,5.4-12.7,5.4c-8,0-13.9-6.8-13.9-14.6c0-7.7,5.8-14.6,13.9-14.6c4.5,0,8.6,1.5,12.7,5.8V55.5z"/>
<g>
	<path class="st0" d="M182.5,0l-10,13.6L142.9,54l-11-13.6l-11-13.6c-5.5,7.5-5.1,19.7,1,27.3l21.9,27.3l39.6-54
		C188.9,19.7,188.5,7.5,182.5,0z"/>
</g>
</svg>
