<svg width="85" height="86" viewBox="0 0 85 86" fill="none" xmlns="http://www.w3.org/2000/svg">
<path d="M42.4885 8.6367C53.8938 8.6367 55.1158 8.6367 59.5964 9.04492C63.6697 9.04492 66.1137 9.86135 67.3357 10.6778C69.3724 11.4942 70.5944 12.3107 72.2237 13.9435C73.853 15.5764 74.6677 16.8011 75.4824 18.8422C75.8897 20.475 76.7044 22.5161 77.1117 26.5983C77.1117 31.0887 77.519 32.3134 77.519 43.7435C77.519 55.1736 77.519 56.3982 77.1117 60.8886C77.1117 64.9708 76.297 67.4201 75.4824 68.6448C74.6677 70.6859 73.853 71.9105 72.2237 73.5434C70.5944 75.1763 69.3724 75.9927 67.3357 76.8091C65.7064 77.2174 63.6697 78.0338 59.5964 78.442C55.1158 78.8502 53.8938 78.8502 42.4885 78.8502C31.0832 78.8502 29.8612 78.8502 25.3806 78.442C21.3072 78.442 18.8632 77.6256 17.6412 76.8091C15.6046 75.9927 14.3826 75.1763 12.7533 73.5434C11.1239 71.9105 10.3093 70.6859 9.49461 68.6448C9.08728 67.0119 8.27261 64.9708 7.86528 60.8886C7.45795 56.3982 7.45795 55.1736 7.45795 43.7435C7.45795 32.3134 7.45795 31.0887 7.86528 26.5983C7.86528 22.5161 8.67995 20.0668 9.49461 18.8422C10.3093 16.8011 11.1239 15.5764 12.7533 13.9435C14.3826 12.3107 15.6046 11.4942 17.6412 10.6778C19.2706 10.2696 21.3072 9.45314 25.3806 9.04492C29.8612 8.6367 31.0832 8.6367 42.4885 8.6367ZM42.4885 0.880554C31.0832 0.880554 29.4539 0.880552 24.9732 1.28877C20.4926 1.69699 17.2339 2.10521 14.7899 3.32986C11.9386 4.55452 9.49461 5.77917 7.45795 8.22848C5.01396 10.6778 3.79196 13.1271 2.56997 15.5764C1.34797 18.4339 0.940642 21.2915 0.53331 25.7819C0.125978 30.2723 0.125977 31.9051 0.125977 43.3352C0.125977 54.7654 0.125978 56.3982 0.53331 60.8886C0.940642 65.379 1.34797 68.6448 2.56997 71.0941C3.79196 73.9516 5.01396 76.4009 7.45795 78.442C9.90194 80.8913 12.3459 82.116 14.7899 83.3406C17.6412 84.5653 20.4926 84.9735 24.9732 85.3817C29.4539 85.7899 31.0832 85.7899 42.4885 85.7899C53.8938 85.7899 55.5231 85.7899 60.0038 85.3817C64.4844 84.9735 67.7431 84.5653 70.187 83.3406C73.0384 82.116 75.4824 80.8913 77.519 78.442C79.963 75.9927 81.185 73.5434 82.407 71.0941C83.629 68.2366 84.0363 65.379 84.4437 60.8886C84.851 56.3982 84.851 54.7654 84.851 43.3352C84.851 31.9051 84.851 30.2723 84.4437 25.7819C84.0363 21.2915 83.629 18.0257 82.407 15.5764C81.185 12.7189 79.963 10.2696 77.519 8.22848C75.075 5.77917 72.631 4.55452 70.187 3.32986C67.3357 2.10521 64.4844 1.69699 60.0038 1.28877C55.5231 1.28877 53.8938 0.880554 42.4885 0.880554Z" fill="white"/>
<path d="M42.4894 21.6919C30.2699 21.6919 20.4944 31.4891 20.4944 43.7357C20.4944 55.9822 30.2699 65.7795 42.4894 65.7795C54.7088 65.7795 64.4844 55.9822 64.4844 43.7357C64.0771 31.4891 54.3015 21.6919 42.4894 21.6919ZM42.4894 58.0233C34.7504 58.0233 28.2334 51.4918 28.2334 43.7357C28.2334 35.9795 34.7504 29.448 42.4894 29.448C50.2284 29.448 56.7454 35.9795 56.7454 43.7357C56.7454 51.4918 50.2284 58.0233 42.4894 58.0233Z" fill="white"/>
<path d="M70.1868 20.882C70.1868 23.7395 67.7428 26.1888 64.8915 26.1888C62.0402 26.1888 59.5962 23.7395 59.5962 20.882C59.5962 18.0244 62.0402 15.5751 64.8915 15.5751C67.7428 15.9834 70.1868 18.0244 70.1868 20.882Z" fill="white"/>
</svg>
