<svg width="96" height="118" viewBox="0 0 96 118" fill="none" xmlns="http://www.w3.org/2000/svg">
<path d="M48.0905 69.7828C28.9626 69.7828 11.2344 80.4195 0.970703 97.2513C0.970703 97.2513 1.08734 97.4851 1.32061 97.7189C2.60357 99.3553 7.38552 104.849 18.4657 110.226C38.2933 120.044 61.9698 119.46 81.2143 108.356C85.2964 106.018 89.1453 103.213 92.411 99.9398C93.4607 99.0047 94.3938 98.0696 95.0936 97.1345C84.9465 80.3027 67.2183 69.7828 48.0905 69.7828Z" fill="white"/>
<path d="M48.0936 66.9765C66.5215 66.9765 81.567 51.8981 81.567 33.4298C81.567 14.9616 66.5215 0 48.0936 0C29.6657 0 14.6201 15.0785 14.6201 33.5467C14.6201 52.0149 29.6657 66.9765 48.0936 66.9765Z" fill="white"/>
</svg>
