<svg width="77" height="54" viewBox="0 0 77 54" fill="none" xmlns="http://www.w3.org/2000/svg">
<path d="M38.7406 53.358C30.594 53.358 22.4474 53.358 14.3008 52.9497C11.8569 52.9497 9.00556 52.5415 6.56159 51.3169C4.93227 50.5004 3.71029 49.2758 2.89563 47.6429C1.67364 44.7854 1.26632 41.9279 0.858986 38.6621C0.451658 32.5388 0.45166 26.0073 0.45166 19.8841C0.45166 16.6183 0.85899 13.3526 1.67365 10.0868C2.08098 8.86218 2.4883 7.63753 2.89563 6.41287C4.11762 3.55534 6.56159 2.33069 9.82022 1.51425C12.2642 1.10604 14.7082 1.10603 17.1521 1.10603C25.706 0.697816 34.2599 0.697815 42.8138 0.697815C49.3311 0.697815 55.8483 1.10603 62.3656 1.10603C64.4023 1.10603 66.4389 1.10603 68.4755 1.92247C70.9195 2.73891 72.9561 4.37178 74.1781 7.22931C75.4001 9.67862 75.4001 12.5361 75.8075 14.9855C76.2148 22.3334 76.2148 29.6813 75.8075 37.4375C75.8075 39.8868 75.4001 42.3361 74.9928 44.7854C73.3635 50.5004 70.1049 52.5415 64.8096 52.9497C59.107 53.358 53.8117 53.358 48.1091 53.7662C45.2578 53.358 41.9992 53.358 38.7406 53.358ZM30.594 37.8457C37.9259 33.7635 45.2578 29.6813 52.5897 25.5991C45.2578 21.5169 37.9259 17.4348 30.594 13.3526C30.594 21.5169 30.594 29.6813 30.594 37.8457Z" fill="white"/>
</svg>
