<svg width="92" height="52" viewBox="0 0 92 52" fill="none" xmlns="http://www.w3.org/2000/svg">
<path d="M91.0389 47.3553C91.0389 46.9471 90.6315 46.9471 90.6315 46.9471C89.0022 44.0896 86.1509 40.8238 81.6702 36.7416C79.6335 34.7005 78.4115 33.4759 78.0042 33.0677C77.1895 31.843 76.7822 30.6183 77.1895 29.3937C77.5969 28.5773 78.8189 26.5362 81.2629 23.2704C82.4849 21.6375 83.7069 20.4129 84.1142 19.1882C89.4095 11.8403 91.8536 7.34991 91.0389 5.30882L90.6315 4.9006C90.6315 4.49238 89.8169 4.49239 89.0022 4.08417C88.1875 3.67595 87.3729 3.67595 86.1509 4.08417H72.7089C72.3015 4.08417 72.3015 4.08417 71.8942 4.08417C71.4869 4.08417 71.4869 4.08417 71.4869 4.08417H71.0795L70.6722 4.49238C70.6722 4.9006 70.2649 4.9006 70.2649 5.30882C68.6355 8.98278 67.0062 12.6567 65.3769 15.9225C64.1549 17.9636 63.3402 19.5965 62.1182 20.8211C61.3035 22.0458 60.4889 23.2704 59.6742 24.0869C58.8595 24.9033 58.4522 25.3115 58.0449 25.7197C57.6375 26.1279 57.2302 26.128 56.8229 26.128C56.4155 26.128 56.4155 26.128 56.0082 26.128C55.6009 25.7197 55.1935 25.3115 54.7862 24.9033C54.3789 24.4951 54.3789 23.6786 54.3789 23.2704C54.3789 22.454 54.3789 22.0458 54.3789 21.2293C54.3789 20.8211 54.3789 20.0047 54.3789 18.78C54.3789 17.9636 54.3789 17.1472 54.3789 16.7389C54.3789 15.5143 54.3789 14.2896 54.3789 12.6568C54.3789 11.4321 54.3789 10.2074 54.3789 9.391C54.3789 8.57456 54.3789 7.75813 54.3789 6.94169C54.3789 6.12526 54.3789 5.30882 54.3789 4.9006C54.3789 4.49238 53.9715 4.08416 53.9715 3.26773C53.5642 2.85951 53.5642 2.45129 53.1569 2.04308C52.7495 1.63486 52.3422 1.63485 51.5275 1.22664C49.8982 0.818418 47.8615 0.81842 45.0102 0.81842C39.3075 0.81842 35.6415 1.22664 33.6049 2.04308C32.7902 2.45129 32.3829 2.85951 31.9755 3.26773C31.5682 4.08416 31.1609 4.49238 31.5682 4.49238C33.6049 4.9006 34.8269 5.30882 35.6415 6.53347L36.0489 6.94169C36.4562 7.34991 36.4562 8.16635 36.8635 8.98279C37.2709 10.2074 37.2709 11.0239 37.2709 12.2485C37.2709 14.6978 37.2709 16.3307 37.2709 17.9636C37.2709 19.5965 36.8635 20.8211 36.8635 21.6375C36.8635 22.454 36.4562 23.2704 36.0489 23.6786C35.6415 24.0869 35.6415 24.4951 35.6415 24.9033C35.6415 24.9033 35.6415 24.9033 35.2342 25.3115C34.8269 25.3115 34.4195 25.7197 34.0122 25.7197C33.6049 25.7197 33.1975 25.3115 32.3829 24.9033C31.5682 24.4951 31.1609 23.6786 30.3462 23.2704C29.5315 22.454 28.7169 21.2293 27.9022 20.0047C27.0875 18.78 26.2729 17.1471 25.4582 15.1061L24.2362 13.8814C23.8289 13.065 23.0142 11.8403 22.1995 10.2074C21.3848 8.57457 20.5702 6.94169 20.1628 5.30882C19.7555 4.49238 19.3482 4.08417 18.9408 3.67595H18.5335C18.5335 3.67595 18.1262 3.26773 17.7188 3.26773C17.3115 3.26773 16.9042 2.85951 16.4968 2.85951H3.46217C2.24017 2.85951 1.42551 3.26773 0.61084 3.67595V4.08417C0.61084 4.08417 0.61084 4.49238 0.61084 4.9006C0.61084 5.30882 0.610841 5.71704 1.01817 6.12526C3.05484 10.6157 5.09151 14.6978 7.12818 18.78C9.16485 22.8622 11.2015 26.128 12.8308 28.5773C14.4602 31.0266 16.0895 33.4759 17.7188 35.517C19.3482 37.5581 20.5702 39.1909 20.9775 39.5991C21.3848 40.4156 21.7922 40.8238 22.1995 40.8238L23.4215 42.0485C24.2362 42.8649 25.4582 43.6813 26.6802 44.906C28.3095 46.1306 29.9389 46.9471 31.5682 48.1717C33.1975 48.9882 35.2342 50.2128 37.6782 50.621C40.1222 51.4375 42.1589 51.4375 44.6029 51.4375H49.8982C51.1202 51.4375 51.9349 51.0293 52.3422 50.2128V49.8046C52.3422 49.8046 52.7495 49.3964 52.7495 48.9882C52.7495 48.58 52.7495 48.1717 52.7495 47.7635C52.7495 46.5389 52.7495 45.3142 53.1569 44.0896C53.5642 42.8649 53.5642 42.0485 53.9715 41.6402C54.3789 41.232 54.7862 40.8238 54.7862 40.4156C55.1935 40.0074 55.6009 40.0074 55.6009 39.5991H56.0082C56.8229 39.1909 57.6375 39.5992 58.8595 40.4156C59.6742 41.232 60.8962 42.0485 61.7109 43.2731C62.5255 44.4978 63.7475 45.7224 64.9695 46.9471C66.1915 48.1717 67.4135 49.3964 68.2282 49.8046L69.0429 50.2128C69.8575 50.621 70.6722 51.0293 71.4869 51.4375C72.3015 51.8457 73.5235 51.8457 73.9309 51.8457H85.7435C86.9655 51.8457 87.7802 51.8457 88.5949 51.4375C89.4095 51.0293 89.8169 50.621 89.8169 50.2128C89.8169 49.8046 89.8169 49.3964 89.8169 48.58C91.0389 47.7635 91.0389 47.3553 91.0389 47.3553Z" fill="white"/>
</svg>
